<mxfile host="app.diagrams.net" modified="2024-07-12T08:21:54.008Z" agent="Mozilla/5.0 (Macintosh; Intel Mac OS X 10_15_7) AppleWebKit/537.36 (KHTML, like Gecko) Chrome/125.0.0.0 Safari/537.36" etag="Dz5tH192blFmBhcYvW-A" version="24.6.5" type="device" pages="2">
  <diagram name="Page-1" id="Ud3CsiPvJ2ZB672xrngr">
    <mxGraphModel dx="984" dy="665" grid="1" gridSize="10" guides="1" tooltips="1" connect="1" arrows="1" fold="1" page="1" pageScale="1" pageWidth="827" pageHeight="1169" math="0" shadow="0">
      <root>
        <mxCell id="0" />
        <mxCell id="1" parent="0" />
        <mxCell id="pdocLN2cJ8Lp2xCekg5D-2" value="Farm creator" style="shape=umlActor;verticalLabelPosition=bottom;verticalAlign=top;html=1;outlineConnect=0;fillColor=#ffe6cc;strokeColor=#d79b00;" vertex="1" parent="1">
          <mxGeometry x="30" y="204" width="30" height="60" as="geometry" />
        </mxCell>
        <mxCell id="pdocLN2cJ8Lp2xCekg5D-17" style="edgeStyle=orthogonalEdgeStyle;rounded=0;orthogonalLoop=1;jettySize=auto;html=1;" edge="1" parent="1" source="pdocLN2cJ8Lp2xCekg5D-10">
          <mxGeometry relative="1" as="geometry">
            <mxPoint x="440" y="234" as="targetPoint" />
          </mxGeometry>
        </mxCell>
        <mxCell id="pdocLN2cJ8Lp2xCekg5D-18" value="Deploys" style="edgeLabel;html=1;align=center;verticalAlign=middle;resizable=0;points=[];" vertex="1" connectable="0" parent="pdocLN2cJ8Lp2xCekg5D-17">
          <mxGeometry x="-0.1402" y="-1" relative="1" as="geometry">
            <mxPoint x="1" y="-2" as="offset" />
          </mxGeometry>
        </mxCell>
        <mxCell id="pdocLN2cJ8Lp2xCekg5D-10" value="FarmDeployers" style="rounded=1;whiteSpace=wrap;html=1;fillColor=#f5f5f5;strokeColor=#666666;fontColor=#333333;" vertex="1" parent="1">
          <mxGeometry x="200" y="204" width="120" height="60" as="geometry" />
        </mxCell>
        <mxCell id="pdocLN2cJ8Lp2xCekg5D-15" value="" style="endArrow=classic;html=1;rounded=0;exitX=0.5;exitY=0.5;exitDx=0;exitDy=0;exitPerimeter=0;" edge="1" parent="1" source="pdocLN2cJ8Lp2xCekg5D-2" target="pdocLN2cJ8Lp2xCekg5D-10">
          <mxGeometry width="50" height="50" relative="1" as="geometry">
            <mxPoint x="390" y="514" as="sourcePoint" />
            <mxPoint x="440" y="464" as="targetPoint" />
          </mxGeometry>
        </mxCell>
        <mxCell id="pdocLN2cJ8Lp2xCekg5D-16" value="Create farm" style="edgeLabel;html=1;align=center;verticalAlign=middle;resizable=0;points=[];" vertex="1" connectable="0" parent="pdocLN2cJ8Lp2xCekg5D-15">
          <mxGeometry x="-0.1613" y="-3" relative="1" as="geometry">
            <mxPoint x="5" y="-3" as="offset" />
          </mxGeometry>
        </mxCell>
        <mxCell id="pdocLN2cJ8Lp2xCekg5D-19" value="Farm" style="rounded=1;whiteSpace=wrap;html=1;fillColor=#d5e8d4;strokeColor=#82b366;" vertex="1" parent="1">
          <mxGeometry x="441" y="204" width="120" height="60" as="geometry" />
        </mxCell>
        <mxCell id="pdocLN2cJ8Lp2xCekg5D-20" value="FarmRegistry" style="rounded=1;whiteSpace=wrap;html=1;fillColor=#ffe6cc;strokeColor=#d79b00;" vertex="1" parent="1">
          <mxGeometry x="198" y="30" width="120" height="80" as="geometry" />
        </mxCell>
        <mxCell id="pdocLN2cJ8Lp2xCekg5D-26" value="" style="endArrow=classic;html=1;rounded=0;exitX=0.75;exitY=1;exitDx=0;exitDy=0;" edge="1" parent="1">
          <mxGeometry width="50" height="50" relative="1" as="geometry">
            <mxPoint x="228" y="110" as="sourcePoint" />
            <mxPoint x="228" y="200" as="targetPoint" />
          </mxGeometry>
        </mxCell>
        <mxCell id="pdocLN2cJ8Lp2xCekg5D-27" value="Fee params" style="edgeLabel;html=1;align=center;verticalAlign=middle;resizable=0;points=[];" vertex="1" connectable="0" parent="pdocLN2cJ8Lp2xCekg5D-26">
          <mxGeometry x="-0.0333" relative="1" as="geometry">
            <mxPoint y="-17" as="offset" />
          </mxGeometry>
        </mxCell>
        <mxCell id="pdocLN2cJ8Lp2xCekg5D-29" value="" style="endArrow=classic;html=1;rounded=0;entryX=0.75;entryY=1;entryDx=0;entryDy=0;exitX=0.75;exitY=0;exitDx=0;exitDy=0;" edge="1" parent="1" source="pdocLN2cJ8Lp2xCekg5D-10" target="pdocLN2cJ8Lp2xCekg5D-20">
          <mxGeometry width="50" height="50" relative="1" as="geometry">
            <mxPoint x="390" y="260" as="sourcePoint" />
            <mxPoint x="440" y="210" as="targetPoint" />
          </mxGeometry>
        </mxCell>
        <mxCell id="pdocLN2cJ8Lp2xCekg5D-32" value="registerFarm" style="edgeLabel;html=1;align=center;verticalAlign=middle;resizable=0;points=[];" vertex="1" connectable="0" parent="pdocLN2cJ8Lp2xCekg5D-29">
          <mxGeometry x="-0.1378" y="1" relative="1" as="geometry">
            <mxPoint y="5" as="offset" />
          </mxGeometry>
        </mxCell>
        <mxCell id="pdocLN2cJ8Lp2xCekg5D-42" value="" style="endArrow=classic;html=1;rounded=0;entryX=0.083;entryY=1.008;entryDx=0;entryDy=0;entryPerimeter=0;" edge="1" parent="1">
          <mxGeometry width="50" height="50" relative="1" as="geometry">
            <mxPoint x="501" y="350" as="sourcePoint" />
            <mxPoint x="500.5" y="267" as="targetPoint" />
          </mxGeometry>
        </mxCell>
        <mxCell id="pdocLN2cJ8Lp2xCekg5D-43" value="Update farm configuration" style="edgeLabel;html=1;align=center;verticalAlign=middle;resizable=0;points=[];" vertex="1" connectable="0" parent="pdocLN2cJ8Lp2xCekg5D-42">
          <mxGeometry x="-0.5889" y="1" relative="1" as="geometry">
            <mxPoint y="-18" as="offset" />
          </mxGeometry>
        </mxCell>
        <mxCell id="pdocLN2cJ8Lp2xCekg5D-58" style="edgeStyle=orthogonalEdgeStyle;rounded=0;orthogonalLoop=1;jettySize=auto;html=1;entryX=1;entryY=0.5;entryDx=0;entryDy=0;" edge="1" parent="1">
          <mxGeometry relative="1" as="geometry">
            <mxPoint x="561" y="219" as="sourcePoint" />
            <mxPoint x="740" y="219" as="targetPoint" />
          </mxGeometry>
        </mxCell>
        <mxCell id="pdocLN2cJ8Lp2xCekg5D-59" value="claim pool fees,&lt;br&gt;rewards and withdraw" style="edgeLabel;html=1;align=center;verticalAlign=middle;resizable=0;points=[];" vertex="1" connectable="0" parent="pdocLN2cJ8Lp2xCekg5D-58">
          <mxGeometry x="-0.0615" relative="1" as="geometry">
            <mxPoint y="-1" as="offset" />
          </mxGeometry>
        </mxCell>
        <mxCell id="pdocLN2cJ8Lp2xCekg5D-57" value="Liquidity provider" style="shape=umlActor;verticalLabelPosition=bottom;verticalAlign=top;html=1;outlineConnect=0;fillColor=#d5e8d4;strokeColor=#82b366;" vertex="1" parent="1">
          <mxGeometry x="740" y="204" width="30" height="60" as="geometry" />
        </mxCell>
        <mxCell id="pdocLN2cJ8Lp2xCekg5D-64" value="USDs Buyback" style="rounded=1;whiteSpace=wrap;html=1;" vertex="1" parent="1">
          <mxGeometry x="209" y="310" width="108" height="20" as="geometry" />
        </mxCell>
        <mxCell id="pdocLN2cJ8Lp2xCekg5D-66" style="edgeStyle=orthogonalEdgeStyle;rounded=0;orthogonalLoop=1;jettySize=auto;html=1;" edge="1" parent="1" source="pdocLN2cJ8Lp2xCekg5D-10">
          <mxGeometry relative="1" as="geometry">
            <mxPoint x="260" y="310" as="targetPoint" />
          </mxGeometry>
        </mxCell>
        <mxCell id="pdocLN2cJ8Lp2xCekg5D-67" value="Send fees" style="edgeLabel;html=1;align=center;verticalAlign=middle;resizable=0;points=[];" vertex="1" connectable="0" parent="pdocLN2cJ8Lp2xCekg5D-66">
          <mxGeometry x="-0.1429" y="1" relative="1" as="geometry">
            <mxPoint as="offset" />
          </mxGeometry>
        </mxCell>
        <mxCell id="pdocLN2cJ8Lp2xCekg5D-68" value="Dex pool" style="rounded=1;whiteSpace=wrap;html=1;fillColor=#f8cecc;strokeColor=#b85450;" vertex="1" parent="1">
          <mxGeometry x="440" y="30" width="120" height="60" as="geometry" />
        </mxCell>
        <mxCell id="pdocLN2cJ8Lp2xCekg5D-71" style="edgeStyle=orthogonalEdgeStyle;rounded=0;orthogonalLoop=1;jettySize=auto;html=1;" edge="1" parent="1" target="pdocLN2cJ8Lp2xCekg5D-19">
          <mxGeometry relative="1" as="geometry">
            <mxPoint x="500" y="90" as="sourcePoint" />
            <Array as="points" />
          </mxGeometry>
        </mxCell>
        <mxCell id="pdocLN2cJ8Lp2xCekg5D-72" value="getLiquidity" style="edgeLabel;html=1;align=center;verticalAlign=middle;resizable=0;points=[];" vertex="1" connectable="0" parent="pdocLN2cJ8Lp2xCekg5D-71">
          <mxGeometry x="-0.4334" y="-2" relative="1" as="geometry">
            <mxPoint y="-3" as="offset" />
          </mxGeometry>
        </mxCell>
        <mxCell id="pdocLN2cJ8Lp2xCekg5D-73" value="getPoolInfo" style="edgeLabel;html=1;align=center;verticalAlign=middle;resizable=0;points=[];" vertex="1" connectable="0" parent="pdocLN2cJ8Lp2xCekg5D-71">
          <mxGeometry x="0.2964" y="1" relative="1" as="geometry">
            <mxPoint as="offset" />
          </mxGeometry>
        </mxCell>
        <mxCell id="pdocLN2cJ8Lp2xCekg5D-74" value="Farm admin" style="shape=umlActor;verticalLabelPosition=bottom;verticalAlign=top;html=1;outlineConnect=0;fillColor=#ffe6cc;strokeColor=#d79b00;" vertex="1" parent="1">
          <mxGeometry x="486" y="352" width="30" height="60" as="geometry" />
        </mxCell>
        <mxCell id="pdocLN2cJ8Lp2xCekg5D-77" value="" style="endArrow=classic;html=1;rounded=0;entryX=1;entryY=0.75;entryDx=0;entryDy=0;" edge="1" parent="1">
          <mxGeometry width="50" height="50" relative="1" as="geometry">
            <mxPoint x="740" y="256" as="sourcePoint" />
            <mxPoint x="561" y="256" as="targetPoint" />
          </mxGeometry>
        </mxCell>
        <mxCell id="pdocLN2cJ8Lp2xCekg5D-79" value="Deposit (LP token)" style="edgeLabel;html=1;align=center;verticalAlign=middle;resizable=0;points=[];" vertex="1" connectable="0" parent="pdocLN2cJ8Lp2xCekg5D-77">
          <mxGeometry x="0.0391" y="-3" relative="1" as="geometry">
            <mxPoint y="2" as="offset" />
          </mxGeometry>
        </mxCell>
      </root>
    </mxGraphModel>
  </diagram>
  <diagram id="JCq-myER4nfhcPKwgAG-" name="Page-2">
    <mxGraphModel dx="984" dy="665" grid="1" gridSize="10" guides="1" tooltips="1" connect="1" arrows="1" fold="1" page="1" pageScale="1" pageWidth="827" pageHeight="1169" math="0" shadow="0">
      <root>
        <mxCell id="0" />
        <mxCell id="1" parent="0" />
        <mxCell id="kMAUde4fWdsniF6aCrTd-22" style="edgeStyle=orthogonalEdgeStyle;rounded=0;orthogonalLoop=1;jettySize=auto;html=1;entryX=0.5;entryY=1;entryDx=0;entryDy=0;" edge="1" parent="1" target="kMAUde4fWdsniF6aCrTd-16">
          <mxGeometry relative="1" as="geometry">
            <mxPoint x="505" y="670" as="sourcePoint" />
          </mxGeometry>
        </mxCell>
        <mxCell id="kMAUde4fWdsniF6aCrTd-1" value="Fixed APR Rewarder" style="rounded=1;whiteSpace=wrap;html=1;fillColor=#f8cecc;strokeColor=#b85450;" vertex="1" parent="1">
          <mxGeometry x="420" y="709.48" width="170" height="60" as="geometry" />
        </mxCell>
        <mxCell id="kMAUde4fWdsniF6aCrTd-2" value="RewarderFactory" style="rounded=1;whiteSpace=wrap;html=1;fillColor=#fff2cc;strokeColor=#d6b656;" vertex="1" parent="1">
          <mxGeometry x="200" y="709.48" width="120" height="60" as="geometry" />
        </mxCell>
        <mxCell id="kMAUde4fWdsniF6aCrTd-3" value="Farm admin" style="shape=umlActor;verticalLabelPosition=bottom;verticalAlign=top;html=1;outlineConnect=0;fillColor=#ffe6cc;strokeColor=#d79b00;" vertex="1" parent="1">
          <mxGeometry x="30" y="709.48" width="30" height="60" as="geometry" />
        </mxCell>
        <mxCell id="kMAUde4fWdsniF6aCrTd-4" value="" style="endArrow=classic;html=1;rounded=0;entryX=0;entryY=0.5;entryDx=0;entryDy=0;" edge="1" parent="1" source="kMAUde4fWdsniF6aCrTd-3" target="kMAUde4fWdsniF6aCrTd-2">
          <mxGeometry width="50" height="50" relative="1" as="geometry">
            <mxPoint x="390" y="589.48" as="sourcePoint" />
            <mxPoint x="440" y="539.48" as="targetPoint" />
          </mxGeometry>
        </mxCell>
        <mxCell id="kMAUde4fWdsniF6aCrTd-5" value="deployRewarder" style="edgeLabel;html=1;align=center;verticalAlign=middle;resizable=0;points=[];" vertex="1" connectable="0" parent="kMAUde4fWdsniF6aCrTd-4">
          <mxGeometry x="-0.0714" relative="1" as="geometry">
            <mxPoint y="-1" as="offset" />
          </mxGeometry>
        </mxCell>
        <mxCell id="kMAUde4fWdsniF6aCrTd-6" style="edgeStyle=orthogonalEdgeStyle;rounded=0;orthogonalLoop=1;jettySize=auto;html=1;entryX=0;entryY=0.5;entryDx=0;entryDy=0;" edge="1" parent="1" target="kMAUde4fWdsniF6aCrTd-1">
          <mxGeometry relative="1" as="geometry">
            <mxPoint x="440" y="738.98" as="targetPoint" />
            <mxPoint x="320" y="738.98" as="sourcePoint" />
          </mxGeometry>
        </mxCell>
        <mxCell id="kMAUde4fWdsniF6aCrTd-7" value="Deploys" style="edgeLabel;html=1;align=center;verticalAlign=middle;resizable=0;points=[];" vertex="1" connectable="0" parent="kMAUde4fWdsniF6aCrTd-6">
          <mxGeometry x="-0.1402" y="-1" relative="1" as="geometry">
            <mxPoint x="1" y="-2" as="offset" />
          </mxGeometry>
        </mxCell>
        <mxCell id="kMAUde4fWdsniF6aCrTd-8" style="edgeStyle=orthogonalEdgeStyle;rounded=0;orthogonalLoop=1;jettySize=auto;html=1;entryX=1;entryY=0.5;entryDx=0;entryDy=0;" edge="1" parent="1">
          <mxGeometry relative="1" as="geometry">
            <mxPoint x="740" y="756.48" as="sourcePoint" />
            <mxPoint x="590" y="756.48" as="targetPoint" />
          </mxGeometry>
        </mxCell>
        <mxCell id="kMAUde4fWdsniF6aCrTd-9" value="updateRewardConfig" style="edgeLabel;html=1;align=center;verticalAlign=middle;resizable=0;points=[];" vertex="1" connectable="0" parent="kMAUde4fWdsniF6aCrTd-8">
          <mxGeometry x="0.16" y="2" relative="1" as="geometry">
            <mxPoint x="11" y="-2" as="offset" />
          </mxGeometry>
        </mxCell>
        <mxCell id="kMAUde4fWdsniF6aCrTd-10" value="Rewarder admin" style="shape=umlActor;verticalLabelPosition=bottom;verticalAlign=top;html=1;outlineConnect=0;fillColor=#ffe6cc;strokeColor=#d79b00;" vertex="1" parent="1">
          <mxGeometry x="740" y="709.48" width="30" height="60" as="geometry" />
        </mxCell>
        <mxCell id="kMAUde4fWdsniF6aCrTd-11" style="edgeStyle=orthogonalEdgeStyle;rounded=0;orthogonalLoop=1;jettySize=auto;html=1;entryX=1;entryY=0.5;entryDx=0;entryDy=0;" edge="1" parent="1">
          <mxGeometry relative="1" as="geometry">
            <mxPoint x="741" y="732.48" as="sourcePoint" />
            <mxPoint x="591" y="732.48" as="targetPoint" />
          </mxGeometry>
        </mxCell>
        <mxCell id="kMAUde4fWdsniF6aCrTd-12" value="updateAPR" style="edgeLabel;html=1;align=center;verticalAlign=middle;resizable=0;points=[];" vertex="1" connectable="0" parent="kMAUde4fWdsniF6aCrTd-11">
          <mxGeometry x="0.16" y="2" relative="1" as="geometry">
            <mxPoint x="11" y="-2" as="offset" />
          </mxGeometry>
        </mxCell>
        <mxCell id="kMAUde4fWdsniF6aCrTd-13" value="Actor" style="shape=umlActor;verticalLabelPosition=bottom;verticalAlign=top;html=1;outlineConnect=0;fillColor=#f5f5f5;fontColor=#333333;strokeColor=#666666;" vertex="1" parent="1">
          <mxGeometry x="500" y="859.48" width="30" height="60" as="geometry" />
        </mxCell>
        <mxCell id="kMAUde4fWdsniF6aCrTd-14" style="edgeStyle=orthogonalEdgeStyle;rounded=0;orthogonalLoop=1;jettySize=auto;html=1;entryX=0.559;entryY=1.033;entryDx=0;entryDy=0;entryPerimeter=0;" edge="1" parent="1" source="kMAUde4fWdsniF6aCrTd-13" target="kMAUde4fWdsniF6aCrTd-1">
          <mxGeometry relative="1" as="geometry" />
        </mxCell>
        <mxCell id="kMAUde4fWdsniF6aCrTd-15" value="calibrateReward" style="edgeLabel;html=1;align=center;verticalAlign=middle;resizable=0;points=[];" vertex="1" connectable="0" parent="kMAUde4fWdsniF6aCrTd-14">
          <mxGeometry x="0.1815" y="-3" relative="1" as="geometry">
            <mxPoint x="-1" y="12" as="offset" />
          </mxGeometry>
        </mxCell>
        <mxCell id="kMAUde4fWdsniF6aCrTd-16" value="Farm A" style="rounded=1;whiteSpace=wrap;html=1;fillColor=#d5e8d4;strokeColor=#82b366;" vertex="1" parent="1">
          <mxGeometry x="285" y="555" width="120" height="60" as="geometry" />
        </mxCell>
        <mxCell id="kMAUde4fWdsniF6aCrTd-17" value="Farm B" style="rounded=1;whiteSpace=wrap;html=1;fillColor=#d5e8d4;strokeColor=#82b366;" vertex="1" parent="1">
          <mxGeometry x="448" y="555" width="120" height="60" as="geometry" />
        </mxCell>
        <mxCell id="kMAUde4fWdsniF6aCrTd-18" value="Farm C" style="rounded=1;whiteSpace=wrap;html=1;fillColor=#d5e8d4;strokeColor=#82b366;" vertex="1" parent="1">
          <mxGeometry x="608" y="555" width="120" height="60" as="geometry" />
        </mxCell>
        <mxCell id="kMAUde4fWdsniF6aCrTd-21" style="edgeStyle=orthogonalEdgeStyle;rounded=0;orthogonalLoop=1;jettySize=auto;html=1;entryX=0.558;entryY=0.992;entryDx=0;entryDy=0;entryPerimeter=0;" edge="1" parent="1" target="kMAUde4fWdsniF6aCrTd-18">
          <mxGeometry relative="1" as="geometry">
            <mxPoint x="505" y="670" as="sourcePoint" />
          </mxGeometry>
        </mxCell>
        <mxCell id="kMAUde4fWdsniF6aCrTd-23" value="" style="endArrow=classic;html=1;rounded=0;entryX=0.425;entryY=0.975;entryDx=0;entryDy=0;exitX=0.459;exitY=-0.033;exitDx=0;exitDy=0;entryPerimeter=0;exitPerimeter=0;" edge="1" parent="1">
          <mxGeometry width="50" height="50" relative="1" as="geometry">
            <mxPoint x="511.03" y="707.5" as="sourcePoint" />
            <mxPoint x="512" y="613.5" as="targetPoint" />
          </mxGeometry>
        </mxCell>
        <mxCell id="kMAUde4fWdsniF6aCrTd-24" value="Manage rewards" style="edgeLabel;html=1;align=center;verticalAlign=middle;resizable=0;points=[];" vertex="1" connectable="0" parent="kMAUde4fWdsniF6aCrTd-23">
          <mxGeometry x="-0.1914" y="-1" relative="1" as="geometry">
            <mxPoint as="offset" />
          </mxGeometry>
        </mxCell>
      </root>
    </mxGraphModel>
  </diagram>
</mxfile>
